<?xml version="1.0" encoding="UTF-8"?>
<svg xmlns="http://www.w3.org/2000/svg" viewBox="0 0 760 380" width="760" height="380" role="img" aria-label="impact is the gap each week">
<defs>
  <filter id="grain" x="0" y="0" width="100%" height="100%">
    <feTurbulence type="fractalNoise" baseFrequency="0.9" numOctaves="2" stitchTiles="stitch" result="n"/>
    <feColorMatrix type="saturate" values="0"/>
    <feComponentTransfer>
      <feFuncA type="linear" slope="0.07"/>
    </feComponentTransfer>
    <feBlend in="SourceGraphic" mode="multiply"/>
  </filter>
</defs>
<rect width="760" height="380" rx="18" ry="18" fill="#f4efe4"/>
<rect width="760" height="380" rx="18" ry="18" fill="#f4efe4" filter="url(#grain)" opacity="0.9"/>
<text x="380.0" y="36.0" font-family="Bradley Hand, Apple Chancery, Segoe Script, Comic Sans MS, cursive" font-size="17" fill="#7a6e5e" text-anchor="middle">weeks 17–24. gap = actual − dashed would-have.</text>
<path d="M 70.0,300.0 L 710.0,300.0" fill="none" stroke="#241c14" stroke-width="1.6" stroke-linecap="round" opacity="1"/>
<path d="M 80.0,70.0 L 80.0,310.0" fill="none" stroke="#241c14" stroke-width="1.6" stroke-linecap="round" opacity="1"/>
<path d="M 120.0,173.8 L 192.0,198.1 L 264.0,202.5 L 336.0,286.2 L 408.0,150.6 L 480.0,175.0 L 552.0,179.4 L 624.0,263.1" fill="none" stroke="#3d5f86" stroke-width="2.0" stroke-linecap="round" stroke-linejoin="round" stroke-dasharray="6 5"/>
<path d="M 120.0,135.0 L 192.0,141.9 L 264.0,175.0 L 336.0,254.4 L 408.0,119.4 L 480.0,116.2 L 552.0,143.7 L 624.0,210.6" fill="none" stroke="#b44a28" stroke-width="2.4" stroke-linecap="round" stroke-linejoin="round"/>
<path d="M 120.0,173.8 L 120.0,135.0" fill="none" stroke="#c4a35a" stroke-width="2.0" stroke-linecap="round" opacity="0.85"/>
<ellipse cx="120.0" cy="135.0" rx="5.5" ry="5.7" transform="rotate(4 120.0 135.0)" fill="#b44a28" opacity="0.95"/>
<text x="120.0" y="328.0" font-family="Bradley Hand, Apple Chancery, Segoe Script, Comic Sans MS, cursive" font-size="13" fill="#7a6e5e" text-anchor="middle">17</text>
<path d="M 192.0,198.1 L 192.0,141.9" fill="none" stroke="#c4a35a" stroke-width="2.0" stroke-linecap="round" opacity="0.85"/>
<ellipse cx="192.0" cy="141.9" rx="5.5" ry="5.7" transform="rotate(4 192.0 141.9)" fill="#b44a28" opacity="0.95"/>
<text x="192.0" y="328.0" font-family="Bradley Hand, Apple Chancery, Segoe Script, Comic Sans MS, cursive" font-size="13" fill="#7a6e5e" text-anchor="middle">18</text>
<path d="M 264.0,202.5 L 264.0,175.0" fill="none" stroke="#c4a35a" stroke-width="2.0" stroke-linecap="round" opacity="0.85"/>
<ellipse cx="264.0" cy="175.0" rx="5.5" ry="5.7" transform="rotate(4 264.0 175.0)" fill="#b44a28" opacity="0.95"/>
<text x="264.0" y="328.0" font-family="Bradley Hand, Apple Chancery, Segoe Script, Comic Sans MS, cursive" font-size="13" fill="#7a6e5e" text-anchor="middle">19</text>
<path d="M 336.0,286.2 L 336.0,254.4" fill="none" stroke="#c4a35a" stroke-width="2.0" stroke-linecap="round" opacity="0.85"/>
<ellipse cx="336.0" cy="254.4" rx="5.5" ry="5.7" transform="rotate(4 336.0 254.4)" fill="#b44a28" opacity="0.95"/>
<text x="336.0" y="328.0" font-family="Bradley Hand, Apple Chancery, Segoe Script, Comic Sans MS, cursive" font-size="13" fill="#7a6e5e" text-anchor="middle">20</text>
<path d="M 408.0,150.6 L 408.0,119.4" fill="none" stroke="#c4a35a" stroke-width="2.0" stroke-linecap="round" opacity="0.85"/>
<ellipse cx="408.0" cy="119.4" rx="5.5" ry="5.7" transform="rotate(4 408.0 119.4)" fill="#b44a28" opacity="0.95"/>
<text x="408.0" y="328.0" font-family="Bradley Hand, Apple Chancery, Segoe Script, Comic Sans MS, cursive" font-size="13" fill="#7a6e5e" text-anchor="middle">21</text>
<path d="M 480.0,175.0 L 480.0,116.2" fill="none" stroke="#c4a35a" stroke-width="2.0" stroke-linecap="round" opacity="0.85"/>
<ellipse cx="480.0" cy="116.2" rx="5.5" ry="5.7" transform="rotate(4 480.0 116.2)" fill="#b44a28" opacity="0.95"/>
<text x="480.0" y="328.0" font-family="Bradley Hand, Apple Chancery, Segoe Script, Comic Sans MS, cursive" font-size="13" fill="#7a6e5e" text-anchor="middle">22</text>
<path d="M 552.0,179.4 L 552.0,143.7" fill="none" stroke="#c4a35a" stroke-width="2.0" stroke-linecap="round" opacity="0.85"/>
<ellipse cx="552.0" cy="143.7" rx="5.5" ry="5.7" transform="rotate(4 552.0 143.7)" fill="#b44a28" opacity="0.95"/>
<text x="552.0" y="328.0" font-family="Bradley Hand, Apple Chancery, Segoe Script, Comic Sans MS, cursive" font-size="13" fill="#7a6e5e" text-anchor="middle">23</text>
<path d="M 624.0,263.1 L 624.0,210.6" fill="none" stroke="#c4a35a" stroke-width="2.0" stroke-linecap="round" opacity="0.85"/>
<ellipse cx="624.0" cy="210.6" rx="5.5" ry="5.7" transform="rotate(4 624.0 210.6)" fill="#b44a28" opacity="0.95"/>
<text x="624.0" y="328.0" font-family="Bradley Hand, Apple Chancery, Segoe Script, Comic Sans MS, cursive" font-size="13" fill="#7a6e5e" text-anchor="middle">24</text>
<text x="380.0" y="358.0" font-family="Bradley Hand, Apple Chancery, Segoe Script, Comic Sans MS, cursive" font-size="15" fill="#7a6e5e" text-anchor="middle">mean gap +0.67.  24 is still a break — season was in the cf.</text>
</svg>
