<?xml version="1.0" encoding="UTF-8"?>
<svg xmlns="http://www.w3.org/2000/svg" viewBox="0 0 860 420" width="860" height="420" role="img" aria-label="lasso diamond, ridge circle, elastic net in between">
<defs>
  <filter id="grain" x="0" y="0" width="100%" height="100%">
    <feTurbulence type="fractalNoise" baseFrequency="0.9" numOctaves="2" stitchTiles="stitch" result="n"/>
    <feColorMatrix type="saturate" values="0"/>
    <feComponentTransfer>
      <feFuncA type="linear" slope="0.07"/>
    </feComponentTransfer>
    <feBlend in="SourceGraphic" mode="multiply"/>
  </filter>
</defs>
<rect width="860" height="420" rx="18" ry="18" fill="#f4efe4"/>
<rect width="860" height="420" rx="18" ry="18" fill="#f4efe4" filter="url(#grain)" opacity="0.9"/>
<text x="430.0" y="40.0" font-family="Bradley Hand, Apple Chancery, Segoe Script, Comic Sans MS, cursive" font-size="22" fill="#7a6e5e" text-anchor="middle">the fence is a mix too</text>
<path d="M 40.00,220.00 L 260.00,220.00" fill="none" stroke="#7a6e5e" stroke-width="1.3" stroke-linecap="round"/>
<path d="M 150.00,110.00 L 150.00,330.00" fill="none" stroke="#7a6e5e" stroke-width="1.3" stroke-linecap="round"/>
<path d="M 150.0,142.0 L 228.0,220.0 L 150.0,298.0 L 72.0,220.0 Z" fill="#b44a28" stroke="#b44a28" stroke-width="2.4" stroke-linecap="round" stroke-linejoin="round" opacity="0.1"/>
<text x="150.0" y="360.0" font-family="Bradley Hand, Apple Chancery, Segoe Script, Comic Sans MS, cursive" font-size="20" fill="#b44a28" text-anchor="middle">lasso</text>
<text x="150.0" y="388.0" font-family="Georgia, Times New Roman, serif" font-size="15" fill="#7a6e5e" text-anchor="middle">diamond</text>
<path d="M 320.00,220.00 L 540.00,220.00" fill="none" stroke="#7a6e5e" stroke-width="1.3" stroke-linecap="round"/>
<path d="M 430.00,110.00 L 430.00,330.00" fill="none" stroke="#7a6e5e" stroke-width="1.3" stroke-linecap="round"/>
<ellipse cx="430" cy="220" rx="78" ry="78" fill="#3d5f86" opacity="0.10"/>
<ellipse cx="430" cy="220" rx="78" ry="78" fill="none" stroke="#3d5f86" stroke-width="2.4"/>
<text x="430.0" y="360.0" font-family="Bradley Hand, Apple Chancery, Segoe Script, Comic Sans MS, cursive" font-size="20" fill="#3d5f86" text-anchor="middle">ridge</text>
<text x="430.0" y="388.0" font-family="Georgia, Times New Roman, serif" font-size="15" fill="#7a6e5e" text-anchor="middle">circle</text>
<path d="M 600.00,220.00 L 820.00,220.00" fill="none" stroke="#7a6e5e" stroke-width="1.3" stroke-linecap="round"/>
<path d="M 710.00,110.00 L 710.00,330.00" fill="none" stroke="#7a6e5e" stroke-width="1.3" stroke-linecap="round"/>
<path d="M 710.0,142.0 L 719.6,147.3 L 728.2,152.3 L 736.0,157.2 L 743.3,162.4 L 750.0,167.9 L 756.3,173.7 L 762.1,180.0 L 767.6,186.7 L 772.8,194.0 L 777.7,201.8 L 782.7,210.4 L 788.0,220.0 L 782.7,229.6 L 777.7,238.2 L 772.8,246.0 L 767.6,253.3 L 762.1,260.0 L 756.3,266.3 L 750.0,272.1 L 743.3,277.6 L 736.0,282.8 L 728.2,287.7 L 719.6,292.7 L 710.0,298.0 L 700.4,292.7 L 691.8,287.7 L 684.0,282.8 L 676.7,277.6 L 670.0,272.1 L 663.7,266.3 L 657.9,260.0 L 652.4,253.3 L 647.2,246.0 L 642.3,238.2 L 637.3,229.6 L 632.0,220.0 L 637.3,210.4 L 642.3,201.8 L 647.2,194.0 L 652.4,186.7 L 657.9,180.0 L 663.7,173.7 L 670.0,167.9 L 676.7,162.4 L 684.0,157.2 L 691.8,152.3 L 700.4,147.3 Z" fill="#c4a35a" stroke="#c4a35a" stroke-width="2.4" stroke-linecap="round" stroke-linejoin="round" opacity="0.1"/>
<text x="710.0" y="360.0" font-family="Bradley Hand, Apple Chancery, Segoe Script, Comic Sans MS, cursive" font-size="20" fill="#c4a35a" text-anchor="middle">elastic net</text>
<text x="710.0" y="388.0" font-family="Georgia, Times New Roman, serif" font-size="15" fill="#7a6e5e" text-anchor="middle">in between</text>
</svg>
