<?xml version="1.0" encoding="UTF-8"?>
<svg xmlns="http://www.w3.org/2000/svg" viewBox="0 0 760 460" width="760" height="460" role="img" aria-label="ordinary line vs ridge line">
<defs>
  <filter id="grain" x="0" y="0" width="100%" height="100%">
    <feTurbulence type="fractalNoise" baseFrequency="0.9" numOctaves="2" stitchTiles="stitch" result="n"/>
    <feColorMatrix type="saturate" values="0"/>
    <feComponentTransfer>
      <feFuncA type="linear" slope="0.07"/>
    </feComponentTransfer>
    <feBlend in="SourceGraphic" mode="multiply"/>
  </filter>
</defs>
<rect width="760" height="460" rx="18" ry="18" fill="#f4efe4"/>
<rect width="760" height="460" rx="18" ry="18" fill="#f4efe4" filter="url(#grain)" opacity="0.9"/>
<path d="M 80.00,398.00 L 80.28,339.00 Q 80.28,339.00 80.32,309.50 Q 80.37,280.00 79.99,250.50 Q 79.61,221.00 79.80,191.50 Q 79.99,162.00 79.98,132.50 Q 79.96,103.00 79.98,73.50 L 80.00,44.00" fill="none" stroke="#241c14" stroke-width="2.0" stroke-linecap="round" stroke-linejoin="round" opacity="1"/>
<path d="M 72.00,390.00 L 175.00,389.68 Q 175.00,389.68 226.50,389.51 Q 278.00,389.35 329.50,389.94 Q 381.00,390.54 432.50,390.22 Q 484.00,389.91 535.50,390.06 Q 587.00,390.21 638.50,390.10 L 690.00,390.00" fill="none" stroke="#241c14" stroke-width="2.0" stroke-linecap="round" stroke-linejoin="round" opacity="1"/>
<path d="M 679.0,384.0 L 690.0,390.0 L 679.0,396.0" fill="none" stroke="#241c14" stroke-width="2.0" stroke-linecap="round" stroke-linejoin="round" opacity="1"/>
<path d="M 74.0,55.0 L 80.0,44.0 L 86.0,55.0" fill="none" stroke="#241c14" stroke-width="2.0" stroke-linecap="round" stroke-linejoin="round" opacity="1"/>
<text x="385.0" y="442.0" font-family="Bradley Hand, Apple Chancery, Segoe Script, Comic Sans MS, cursive" font-size="20" fill="#241c14" text-anchor="middle" font-style="normal" font-weight="normal">hours studied</text>
<text x="72.0" y="34.0" font-family="Bradley Hand, Apple Chancery, Segoe Script, Comic Sans MS, cursive" font-size="20" fill="#241c14" text-anchor="end" font-style="normal" font-weight="normal">grade</text>
<path d="M 165.7,390.0 L 165.7,397.0" fill="none" stroke="#241c14" stroke-width="1.4" stroke-linecap="round" stroke-linejoin="round" opacity="0.7"/>
<text x="165.7" y="414.0" font-family="Georgia, Times New Roman, serif" font-size="13" fill="#7a6e5e" text-anchor="middle" font-style="normal" font-weight="normal">1</text>
<path d="M 251.4,390.0 L 251.4,397.0" fill="none" stroke="#241c14" stroke-width="1.4" stroke-linecap="round" stroke-linejoin="round" opacity="0.7"/>
<text x="251.4" y="414.0" font-family="Georgia, Times New Roman, serif" font-size="13" fill="#7a6e5e" text-anchor="middle" font-style="normal" font-weight="normal">2</text>
<path d="M 337.1,390.0 L 337.1,397.0" fill="none" stroke="#241c14" stroke-width="1.4" stroke-linecap="round" stroke-linejoin="round" opacity="0.7"/>
<text x="337.1" y="414.0" font-family="Georgia, Times New Roman, serif" font-size="13" fill="#7a6e5e" text-anchor="middle" font-style="normal" font-weight="normal">3</text>
<path d="M 422.9,390.0 L 422.9,397.0" fill="none" stroke="#241c14" stroke-width="1.4" stroke-linecap="round" stroke-linejoin="round" opacity="0.7"/>
<text x="422.9" y="414.0" font-family="Georgia, Times New Roman, serif" font-size="13" fill="#7a6e5e" text-anchor="middle" font-style="normal" font-weight="normal">4</text>
<path d="M 508.6,390.0 L 508.6,397.0" fill="none" stroke="#241c14" stroke-width="1.4" stroke-linecap="round" stroke-linejoin="round" opacity="0.7"/>
<text x="508.6" y="414.0" font-family="Georgia, Times New Roman, serif" font-size="13" fill="#7a6e5e" text-anchor="middle" font-style="normal" font-weight="normal">5</text>
<path d="M 594.3,390.0 L 594.3,397.0" fill="none" stroke="#241c14" stroke-width="1.4" stroke-linecap="round" stroke-linejoin="round" opacity="0.7"/>
<text x="594.3" y="414.0" font-family="Georgia, Times New Roman, serif" font-size="13" fill="#7a6e5e" text-anchor="middle" font-style="normal" font-weight="normal">6</text>
<path d="M 80.0,322.0 L 73.0,322.0" fill="none" stroke="#241c14" stroke-width="1.4" stroke-linecap="round" stroke-linejoin="round" opacity="0.7"/>
<text x="68.0" y="327.0" font-family="Georgia, Times New Roman, serif" font-size="13" fill="#7a6e5e" text-anchor="end" font-style="normal" font-weight="normal">2</text>
<path d="M 80.0,254.0 L 73.0,254.0" fill="none" stroke="#241c14" stroke-width="1.4" stroke-linecap="round" stroke-linejoin="round" opacity="0.7"/>
<text x="68.0" y="259.0" font-family="Georgia, Times New Roman, serif" font-size="13" fill="#7a6e5e" text-anchor="end" font-style="normal" font-weight="normal">4</text>
<path d="M 80.0,186.0 L 73.0,186.0" fill="none" stroke="#241c14" stroke-width="1.4" stroke-linecap="round" stroke-linejoin="round" opacity="0.7"/>
<text x="68.0" y="191.0" font-family="Georgia, Times New Roman, serif" font-size="13" fill="#7a6e5e" text-anchor="end" font-style="normal" font-weight="normal">6</text>
<path d="M 80.0,118.0 L 73.0,118.0" fill="none" stroke="#241c14" stroke-width="1.4" stroke-linecap="round" stroke-linejoin="round" opacity="0.7"/>
<text x="68.0" y="123.0" font-family="Georgia, Times New Roman, serif" font-size="13" fill="#7a6e5e" text-anchor="end" font-style="normal" font-weight="normal">8</text>
<path d="M 114.29,325.74 L 179.68,303.80 Q 179.68,303.80 212.30,292.62 Q 244.93,281.45 277.72,270.77 Q 310.51,260.10 343.19,249.08 Q 375.87,238.05 408.39,226.56 Q 440.91,215.07 473.60,204.10 Q 506.30,193.14 539.05,182.32 Q 571.79,171.50 604.47,160.48 L 637.14,149.45" fill="none" stroke="#b44a28" stroke-width="2.6" stroke-linecap="round" stroke-linejoin="round" opacity="1"/>
<path d="M 114.29,304.39 L 179.65,293.53 Q 179.65,293.53 212.35,288.25 Q 245.06,282.97 277.71,277.33 Q 310.35,271.68 343.03,266.26 Q 375.72,260.84 408.40,255.44 Q 441.09,250.04 473.74,244.42 Q 506.38,238.79 539.09,233.48 Q 571.79,228.17 604.46,222.73 L 637.14,217.28" fill="none" stroke="#3d5f86" stroke-width="2.8" stroke-linecap="round" stroke-linejoin="round" opacity="1"/>
<ellipse cx="165.7" cy="308.4" rx="7.5" ry="7.9" transform="rotate(-2.7 165.7 308.4)" fill="#241c14" opacity="0.92"/>
<ellipse cx="166.9" cy="307.3" rx="2.1" ry="1.7" fill="#f7f2ea" opacity="0.35"/>
<ellipse cx="234.3" cy="257.4" rx="7.4" ry="7.5" transform="rotate(-14.2 234.3 257.4)" fill="#241c14" opacity="0.92"/>
<ellipse cx="235.5" cy="256.3" rx="2.1" ry="1.6" fill="#f7f2ea" opacity="0.35"/>
<ellipse cx="285.7" cy="294.8" rx="7.0" ry="7.1" transform="rotate(1.4 285.7 294.8)" fill="#241c14" opacity="0.92"/>
<ellipse cx="286.9" cy="293.7" rx="2.0" ry="1.6" fill="#f7f2ea" opacity="0.35"/>
<ellipse cx="345.7" cy="250.6" rx="7.2" ry="7.4" transform="rotate(23.2 345.7 250.6)" fill="#241c14" opacity="0.92"/>
<ellipse cx="346.9" cy="249.5" rx="2.0" ry="1.6" fill="#f7f2ea" opacity="0.35"/>
<ellipse cx="405.7" cy="267.6" rx="7.3" ry="7.1" transform="rotate(-5.8 405.7 267.6)" fill="#241c14" opacity="0.92"/>
<ellipse cx="406.9" cy="266.5" rx="2.0" ry="1.6" fill="#f7f2ea" opacity="0.35"/>
<ellipse cx="474.3" cy="203.0" rx="6.8" ry="7.8" transform="rotate(-2.9 474.3 203.0)" fill="#241c14" opacity="0.92"/>
<ellipse cx="475.5" cy="201.9" rx="1.9" ry="1.7" fill="#f7f2ea" opacity="0.35"/>
<ellipse cx="525.7" cy="240.4" rx="7.8" ry="7.6" transform="rotate(-11.3 525.7 240.4)" fill="#241c14" opacity="0.92"/>
<ellipse cx="526.9" cy="239.3" rx="2.2" ry="1.7" fill="#f7f2ea" opacity="0.35"/>
<ellipse cx="594.3" cy="97.6" rx="7.7" ry="7.6" transform="rotate(20.7 594.3 97.6)" fill="#241c14" opacity="0.92"/>
<ellipse cx="595.5" cy="96.5" rx="2.1" ry="1.7" fill="#f7f2ea" opacity="0.35"/>
<text x="534.3" y="166.1" font-family="Bradley Hand, Apple Chancery, Segoe Script, Comic Sans MS, cursive" font-size="20" fill="#b44a28" text-anchor="start" font-style="normal" font-weight="normal">ordinary</text>
<text x="542.9" y="261.0" font-family="Bradley Hand, Apple Chancery, Segoe Script, Comic Sans MS, cursive" font-size="20" fill="#3d5f86" text-anchor="start" font-style="normal" font-weight="normal">ridge</text>
</svg>
