<?xml version="1.0" encoding="UTF-8"?>
<svg xmlns="http://www.w3.org/2000/svg" viewBox="0 0 760 480" width="760" height="480" role="img" aria-label="anatomy of a sketchbook note">
<defs>
  <filter id="grain" x="0" y="0" width="100%" height="100%">
    <feTurbulence type="fractalNoise" baseFrequency="0.9" numOctaves="2" stitchTiles="stitch" result="n"/>
    <feColorMatrix type="saturate" values="0"/>
    <feComponentTransfer>
      <feFuncA type="linear" slope="0.07"/>
    </feComponentTransfer>
    <feBlend in="SourceGraphic" mode="multiply"/>
  </filter>
</defs>
<rect width="760" height="480" rx="18" ry="18" fill="#f4efe4"/>
<rect width="760" height="480" rx="18" ry="18" fill="#f4efe4" filter="url(#grain)" opacity="0.9"/>
<path d="M 70,50 L 430,50 L 430,430 L 70,430 Z" fill="#efe6d4" stroke="#241c14" stroke-width="2.0" stroke-linecap="round" stroke-linejoin="round" opacity="1"/>
<path d="M 100.00,50.00 L 99.84,126.00 Q 99.84,126.00 100.05,164.00 Q 100.25,202.00 100.24,240.00 Q 100.24,278.00 100.06,316.00 Q 99.88,354.00 99.94,392.00 L 100.00,430.00" fill="none" stroke="#b44a28" stroke-width="1.6" stroke-linecap="round" stroke-linejoin="round" opacity="0.5"/>
<text x="250.0" y="88.0" font-family="Bradley Hand, Apple Chancery, Segoe Script, Comic Sans MS, cursive" font-size="20" fill="#241c14" text-anchor="middle" font-style="normal">title — a sketchbook</text>
<path d="M 120,108 L 380,108 L 380,148 L 120,148 Z" fill="#3d5f86" stroke="#3d5f86" stroke-width="1.4" stroke-linecap="round" stroke-linejoin="round" opacity="0.08"/>
<text x="250.0" y="134.0" font-family="Georgia, Times New Roman, serif" font-size="14" fill="#3d5f86" text-anchor="middle" font-style="normal">one sentence  (abstract)</text>
<path d="M 130,168 L 370,248 L 370,248 L 130,248 Z" fill="#4f6d55" stroke="#4f6d55" stroke-width="1.2" stroke-linecap="round" stroke-linejoin="round" opacity="0.1"/>
<text x="250.0" y="216.0" font-family="Bradley Hand, Apple Chancery, Segoe Script, Comic Sans MS, cursive" font-size="16" fill="#4f6d55" text-anchor="middle" font-style="normal">hero drawing</text>
<text x="250.0" y="280.0" font-family="Bradley Hand, Apple Chancery, Segoe Script, Comic Sans MS, cursive" font-size="16" fill="#241c14" text-anchor="middle" font-style="normal">Page 1 — one idea</text>
<text x="250.0" y="308.0" font-family="Bradley Hand, Apple Chancery, Segoe Script, Comic Sans MS, cursive" font-size="16" fill="#7a6e5e" text-anchor="middle" font-style="normal">Page 2 — the next idea</text>
<text x="250.0" y="350.0" font-family="Bradley Hand, Apple Chancery, Segoe Script, Comic Sans MS, cursive" font-size="18" fill="#7a6e5e" text-anchor="middle" font-style="normal">…</text>
<text x="250.0" y="400.0" font-family="Georgia, Times New Roman, serif" font-size="14" fill="#b44a28" text-anchor="middle" font-style="normal">cheat sheet  ·  sklearn mini</text>
<text x="560.0" y="90.0" font-family="Bradley Hand, Apple Chancery, Segoe Script, Comic Sans MS, cursive" font-size="22" fill="#7a6e5e" text-anchor="start" font-style="normal">anatomy</text>
<ellipse cx="500.0" cy="120.0" rx="5.7" ry="5.2" transform="rotate(5.3 500.0 120.0)" fill="#b44a28" opacity="0.92"/>
<text x="520.0" y="126.0" font-family="Bradley Hand, Apple Chancery, Segoe Script, Comic Sans MS, cursive" font-size="16" fill="#241c14" text-anchor="start" font-style="normal">YAML  ·  aliases  ·  tags</text>
<ellipse cx="500.0" cy="175.0" rx="5.6" ry="5.6" transform="rotate(-17.1 500.0 175.0)" fill="#b44a28" opacity="0.92"/>
<text x="520.0" y="181.0" font-family="Bradley Hand, Apple Chancery, Segoe Script, Comic Sans MS, cursive" font-size="16" fill="#241c14" text-anchor="start" font-style="normal">hero SVG, paper + ink</text>
<ellipse cx="500.0" cy="230.0" rx="5.4" ry="5.4" transform="rotate(11.2 500.0 230.0)" fill="#b44a28" opacity="0.92"/>
<text x="520.0" y="236.0" font-family="Bradley Hand, Apple Chancery, Segoe Script, Comic Sans MS, cursive" font-size="16" fill="#241c14" text-anchor="start" font-style="normal">flip it like a notebook</text>
<ellipse cx="500.0" cy="290.0" rx="6.2" ry="6.1" transform="rotate(2.2 500.0 290.0)" fill="#b44a28" opacity="0.92"/>
<text x="520.0" y="296.0" font-family="Bradley Hand, Apple Chancery, Segoe Script, Comic Sans MS, cursive" font-size="16" fill="#241c14" text-anchor="start" font-style="normal">one page = one idea</text>
<ellipse cx="500.0" cy="350.0" rx="5.4" ry="5.2" transform="rotate(-23.2 500.0 350.0)" fill="#b44a28" opacity="0.92"/>
<text x="520.0" y="356.0" font-family="Bradley Hand, Apple Chancery, Segoe Script, Comic Sans MS, cursive" font-size="16" fill="#241c14" text-anchor="start" font-style="normal">sequel pointer, if any</text>
<ellipse cx="500.0" cy="410.0" rx="4.9" ry="5.5" transform="rotate(-9.1 500.0 410.0)" fill="#b44a28" opacity="0.92"/>
<text x="520.0" y="416.0" font-family="Bradley Hand, Apple Chancery, Segoe Script, Comic Sans MS, cursive" font-size="16" fill="#241c14" text-anchor="start" font-style="normal">real output, not invented</text>
</svg>
